<svg width="874" height="121" viewBox="0 0 874 121" fill="none" xmlns="http://www.w3.org/2000/svg">
<rect x="446" y="40" width="16" height="80" fill="#0284C7"/>
<path d="M486 81C496.609 81 506.783 76.7857 514.284 69.2843C521.786 61.7828 526 51.6087 526 41C526 30.3913 521.786 20.2172 514.284 12.7157C506.783 5.21428 496.609 1 486 1L486 16.6984C492.445 16.6984 498.626 19.2588 503.184 23.8162C507.741 28.3736 510.302 34.5548 510.302 41C510.302 47.4452 507.741 53.6264 503.184 58.1838C498.626 62.7413 492.445 65.3016 486 65.3016V81Z" fill="#0284C7"/>
<path d="M834 1C823.391 1 813.217 5.21427 805.716 12.7157C798.214 20.2172 794 30.3913 794 41C794 51.6087 798.214 61.7828 805.716 69.2843C813.217 76.7857 823.391 81 834 81L834 65.3016C827.555 65.3016 821.374 62.7412 816.816 58.1838C812.259 53.6264 809.698 47.4452 809.698 41C809.698 34.5548 812.259 28.3736 816.816 23.8162C821.374 19.2587 827.555 16.6984 834 16.6984V1Z" fill="#0284C7"/>
<path d="M858 40H874V81C874 82.6569 872.657 84 871 84H861C859.343 84 858 82.6569 858 81V40Z" fill="#0284C7"/>
<path d="M834 121C839.253 121 844.454 119.965 849.307 117.955C854.16 115.945 858.57 112.999 862.284 109.284C865.999 105.57 868.945 101.16 870.955 96.3073C872.965 91.4543 874 86.2529 874 81H858.021C858.021 84.1545 857.399 87.278 856.192 90.1924C854.985 93.1067 853.216 95.7547 850.985 97.9853C848.755 100.216 846.107 101.985 843.192 103.192C840.278 104.399 837.154 105.021 834 105.021V121Z" fill="#0284C7"/>
<path d="M758 39.5C758 34.4441 756.965 29.4377 754.955 24.7667C752.945 20.0957 749.999 15.8514 746.284 12.2764C742.57 8.70133 738.16 5.86544 733.307 3.93064C728.454 1.99583 723.253 1 718 1C712.747 1 707.546 1.99583 702.693 3.93064C697.84 5.86545 693.43 8.70133 689.716 12.2764C686.001 15.8514 683.055 20.0957 681.045 24.7667C679.035 29.4377 678 34.4441 678 39.5H694.131C694.131 36.4831 694.749 33.4956 695.948 30.7083C697.148 27.921 698.906 25.3884 701.122 23.2551C703.339 21.1218 705.97 19.4296 708.866 18.2751C711.762 17.1205 714.866 16.5263 718 16.5263C721.134 16.5263 724.238 17.1205 727.134 18.2751C730.03 19.4296 732.661 21.1218 734.878 23.2551C737.094 25.3884 738.852 27.921 740.052 30.7083C741.251 33.4956 741.869 36.483 741.869 39.5H758Z" fill="#0284C7"/>
<rect x="678" y="39" width="16" height="42" fill="#0284C7"/>
<rect x="678" y="39" width="16" height="42" fill="#0284C7"/>
<rect x="678" y="39" width="16" height="42" fill="#0284C7"/>
<rect x="678" y="39" width="16" height="42" fill="#0284C7"/>
<rect x="742" y="39" width="16" height="42" fill="#0284C7"/>
<rect x="742" y="39" width="16" height="42" fill="#0284C7"/>
<rect x="742" y="39" width="16" height="42" fill="#0284C7"/>
<rect x="742" y="39" width="16" height="42" fill="#0284C7"/>
<circle cx="602" cy="41" r="40" fill="#0284C7"/>
<rect y="39" width="16" height="80" fill="#0284C7"/>
<path d="M40 80C50.6087 80 60.7828 75.7857 68.2843 68.2843C75.7857 60.7828 80 50.6087 80 40C80 29.3913 75.7857 19.2172 68.2843 11.7157C60.7828 4.21428 50.6087 1.60186e-06 40 0L40 15.6984C46.4452 15.6984 52.6264 18.2588 57.1838 22.8162C61.7413 27.3736 64.3016 33.5548 64.3016 40C64.3016 46.4452 61.7413 52.6264 57.1838 57.1838C52.6264 61.7413 46.4452 64.3016 40 64.3016V80Z" fill="#0284C7"/>
<path d="M345 0C334.391 0 324.217 4.21427 316.716 11.7157C309.214 19.2172 305 29.3913 305 40C305 50.6087 309.214 60.7828 316.716 68.2843C324.217 75.7857 334.391 80 345 80L345 64.3016C338.555 64.3016 332.374 61.7412 327.816 57.1838C323.259 52.6264 320.698 46.4452 320.698 40C320.698 33.5548 323.259 27.3736 327.816 22.8162C332.374 18.2587 338.555 15.6984 345 15.6984V0Z" fill="#0284C7"/>
<path d="M369 39H385V80C385 81.6569 383.657 83 382 83H372C370.343 83 369 81.6569 369 80V39Z" fill="#0284C7"/>
<path d="M345 120C350.253 120 355.454 118.965 360.307 116.955C365.16 114.945 369.57 111.999 373.284 108.284C376.999 104.57 379.945 100.16 381.955 95.3073C383.965 90.4543 385 85.2529 385 80L369.021 80C369.021 83.1545 368.399 86.278 367.192 89.1924C365.985 92.1067 364.216 94.7547 361.985 96.9853C359.755 99.2158 357.107 100.985 354.192 102.192C351.278 103.399 348.154 104.021 345 104.021V120Z" fill="#0284C7"/>
<path d="M269 38.5C269 33.4441 267.965 28.4377 265.955 23.7667C263.945 19.0957 260.999 14.8514 257.284 11.2764C253.57 7.70133 249.16 4.86544 244.307 2.93064C239.454 0.995831 234.253 -2.21e-07 229 0C223.747 2.21e-07 218.546 0.995832 213.693 2.93064C208.84 4.86545 204.43 7.70133 200.716 11.2764C197.001 14.8514 194.055 19.0957 192.045 23.7667C190.035 28.4377 189 33.4441 189 38.5L205.131 38.5C205.131 35.4831 205.749 32.4956 206.948 29.7083C208.148 26.921 209.906 24.3884 212.122 22.2551C214.339 20.1218 216.97 18.4296 219.866 17.2751C222.762 16.1205 225.866 15.5263 229 15.5263C232.134 15.5263 235.238 16.1205 238.134 17.2751C241.03 18.4296 243.661 20.1218 245.878 22.2551C248.094 24.3884 249.852 26.921 251.052 29.7083C252.251 32.4956 252.869 35.483 252.869 38.5H269Z" fill="#0284C7"/>
<rect x="189" y="38" width="16" height="42" fill="#0284C7"/>
<rect x="189" y="38" width="16" height="42" fill="#0284C7"/>
<rect x="189" y="38" width="16" height="42" fill="#0284C7"/>
<rect x="189" y="38" width="16" height="42" fill="#0284C7"/>
<rect x="127" y="28" width="16" height="53" fill="#0284C7"/>
<rect x="127" y="28" width="16" height="53" fill="#0284C7"/>
<rect x="127" y="28" width="16" height="53" fill="#0284C7"/>
<rect x="127" y="28" width="16" height="53" fill="#0284C7"/>
<rect x="253" y="38" width="16" height="42" fill="#0284C7"/>
<rect x="253" y="38" width="16" height="42" fill="#0284C7"/>
<rect x="253" y="38" width="16" height="42" fill="#0284C7"/>
<rect x="253" y="38" width="16" height="42" fill="#0284C7"/>
<circle cx="135" cy="10" r="10" fill="#0284C7"/>
</svg>
